<svg version="1" xmlns="http://www.w3.org/2000/svg" width="1229.333" height="1229.333" viewBox="0 0 922.000000 922.000000"><path d="M714.9 102.4c-27.7 5.8-50.5 27.1-58.1 54.3-2.7 9.8-2.9 24.8-.4 34.3 5.4 21 20.5 39.9 39.1 49.1 12.8 6.3 22.4 8.3 37.5 7.6 14-.6 20.3-2.2 32.7-8.3 6.1-3 9.8-5.8 16.8-12.9 10-10 14.5-16.9 18.5-28.3 5.6-15.7 6-24.5 1.9-40.7-6.6-25.9-27.9-47.1-54.4-54-8.5-2.2-25.5-2.8-33.6-1.1zM589.4 195.4c-11.9 2.7-21.9 10-25.1 18.4-2.7 7-2.2 17.8 1.1 27.7 8.8 26.2 32.7 61.4 60.7 89.4 29 28.9 65.3 47.1 123.9 62 34.8 8.8 53.1 11.1 93.8 11.7 17.5.3 30.2.1 30.2-.4 0-1.6-14-5.2-32-8.3-9.6-1.6-20-3.7-23-4.6-11.6-3.4-53-23.6-72.8-35.7-49-29.7-75.2-57.8-94.1-100.6-13.6-31-17.4-38.1-25.3-46.6-10.8-11.7-23.5-16.1-37.4-13zM354.9 284.1c-11.1 6-20.8 16-25 25.8-4.4 10-6.1 31.1-3.9 47.8 1.4 10.1 4.5 26.3 7.5 38.3 1.3 5.2 4.7 20.5 7.5 33.9 6.7 31.9 12.4 55.3 26.4 108.1 13.4 50.8 18.4 70.5 22.5 89 2.6 11.6 31 108.4 38.5 131.3 1.4 4.2 4.3 11 6.3 15l3.7 7.2.7-4c1.5-7.5.9-31.4-2.1-92.2-6.3-127.7-13.8-231.4-22.6-313.6-4.7-44.1-15.4-69.3-34.8-81.9-4.4-2.8-17.2-8.1-19-7.8 0 0-2.6 1.4-5.7 3.1zM439 289c-7.5 1.8-18.1 18.4-20.1 31.2-2.2 14.1 4.2 24.9 22.7 38.3 13.6 9.8 31.4 18.1 69.3 32.1 14 5.2 25.6 9.6 25.8 9.8.5.5-27.2 57.6-56.7 117.1-22.1 44.3-27 55.7-27 62.4 0 2.9.8 2.7 7.6-1.7 3.7-2.4 14.9-13.2 29.9-28.8 13.2-13.6 32.3-33.4 42.4-43.9 48.1-49.5 58.7-63.7 67.2-89.5 4-12.4 5.1-27.5 2.4-36.5-2.5-8.7-6.7-16.3-13.4-24.6-8.9-11-18.9-19-44.3-35.5-24.5-15.9-42.7-24-64.8-28.9-8.6-1.8-35.7-2.9-41-1.5zM190 417.2c-18.1 1.1-36.5 6.1-56.5 15.1-47.2 21.3-84 58.3-109.5 110.2C7.7 575.6.6 606.4.6 643.5c0 34.7 6.1 62 20.4 90.6 14.3 28.5 40.4 53.9 69.3 67.4 19.7 9.2 34 12 60.7 12 16.1 0 21.4-.4 30.6-2.3 21.8-4.4 41.2-12.3 62.4-25.7 15.6-9.8 24.2-16.7 37-29.5 25.6-25.6 47.2-60 57.8-92.1 10.1-30.8 13.8-55 12.9-83.9-1.4-44.2-14.8-81.5-40.3-112.1C281.2 431.7 239 414 190 417.2zm26 20.8c42 5.2 76.1 29.4 97 69.1 13.2 25.3 20.4 62.2 18 92.5-4 50-22.1 93.5-54.8 131.4-22.9 26.5-54.9 47.8-85 56.6-25.5 7.3-57.2 7.5-79.2.4-34.4-11.2-63.9-39.8-77.9-75.5-8.6-21.9-12-38.3-12.8-62.2-1.4-41.4 8.5-79 30.9-116.5 21.7-36.4 48.9-62.4 83.3-79.5 28.8-14.4 54.2-19.5 80.5-16.3zM755 424.1c-31.7 3.6-70.1 20.7-98.8 44.1-28.9 23.6-58.4 65.2-71.1 100.3-17.9 49.5-19.8 100.2-5.4 145 13.7 42.8 41.8 76.2 78.8 93.9 35.8 17.2 80.8 18.3 119.9 2.9 46-18 85.1-52.6 111.7-98.8 45.1-78.5 41.9-174.6-7.8-235.7-30.5-37.5-78.9-57.2-127.3-51.7zm43 22.8c24.5 5.6 42.8 15.7 60 33 29.7 29.9 44.2 71.1 42.7 121-.9 32.1-7.3 57.4-22.1 87.6-21 42.8-52.1 75.3-91.3 95.2-12 6.1-20.8 9.5-33.8 12.9-8.6 2.3-12.6 2.7-29 3.1-16.7.4-20.3.2-29.5-1.7-24.2-4.9-44.3-16-62.5-34.5-19.1-19.2-32.2-45.5-38.6-77.1-3-15.4-3.8-46.3-1.5-62.4 2-13.8 7.4-35.5 11.8-47.6 6.5-18 21.4-43.8 36.3-62.9 8-10.3 24.6-26.4 35.5-34.4 22.4-16.7 50.8-29.4 74.9-33.7 10.7-1.9 35.9-1.1 47.1 1.5z"/></svg>